<svg height="39" width="39" xmlns="http://www.w3.org/2000/svg">  <rect width="39" height="39" x="0" y="0" fill="#ffffff" />
  <rect width="1" height="1" x="1" y="1" fill="#000000" />
  <rect width="1" height="1" x="2" y="1" fill="#000000" />
  <rect width="1" height="1" x="3" y="1" fill="#000000" />
  <rect width="1" height="1" x="4" y="1" fill="#000000" />
  <rect width="1" height="1" x="5" y="1" fill="#000000" />
  <rect width="1" height="1" x="6" y="1" fill="#000000" />
  <rect width="1" height="1" x="7" y="1" fill="#000000" />
  <rect width="1" height="1" x="10" y="1" fill="#000000" />
  <rect width="1" height="1" x="13" y="1" fill="#000000" />
  <rect width="1" height="1" x="14" y="1" fill="#000000" />
  <rect width="1" height="1" x="15" y="1" fill="#000000" />
  <rect width="1" height="1" x="17" y="1" fill="#000000" />
  <rect width="1" height="1" x="19" y="1" fill="#000000" />
  <rect width="1" height="1" x="20" y="1" fill="#000000" />
  <rect width="1" height="1" x="24" y="1" fill="#000000" />
  <rect width="1" height="1" x="26" y="1" fill="#000000" />
  <rect width="1" height="1" x="27" y="1" fill="#000000" />
  <rect width="1" height="1" x="28" y="1" fill="#000000" />
  <rect width="1" height="1" x="31" y="1" fill="#000000" />
  <rect width="1" height="1" x="32" y="1" fill="#000000" />
  <rect width="1" height="1" x="33" y="1" fill="#000000" />
  <rect width="1" height="1" x="34" y="1" fill="#000000" />
  <rect width="1" height="1" x="35" y="1" fill="#000000" />
  <rect width="1" height="1" x="36" y="1" fill="#000000" />
  <rect width="1" height="1" x="37" y="1" fill="#000000" />
  <rect width="1" height="1" x="1" y="2" fill="#000000" />
  <rect width="1" height="1" x="7" y="2" fill="#000000" />
  <rect width="1" height="1" x="9" y="2" fill="#000000" />
  <rect width="1" height="1" x="12" y="2" fill="#000000" />
  <rect width="1" height="1" x="13" y="2" fill="#000000" />
  <rect width="1" height="1" x="14" y="2" fill="#000000" />
  <rect width="1" height="1" x="15" y="2" fill="#000000" />
  <rect width="1" height="1" x="16" y="2" fill="#000000" />
  <rect width="1" height="1" x="23" y="2" fill="#000000" />
  <rect width="1" height="1" x="24" y="2" fill="#000000" />
  <rect width="1" height="1" x="25" y="2" fill="#000000" />
  <rect width="1" height="1" x="27" y="2" fill="#000000" />
  <rect width="1" height="1" x="28" y="2" fill="#000000" />
  <rect width="1" height="1" x="29" y="2" fill="#000000" />
  <rect width="1" height="1" x="31" y="2" fill="#000000" />
  <rect width="1" height="1" x="37" y="2" fill="#000000" />
  <rect width="1" height="1" x="1" y="3" fill="#000000" />
  <rect width="1" height="1" x="3" y="3" fill="#000000" />
  <rect width="1" height="1" x="4" y="3" fill="#000000" />
  <rect width="1" height="1" x="5" y="3" fill="#000000" />
  <rect width="1" height="1" x="7" y="3" fill="#000000" />
  <rect width="1" height="1" x="9" y="3" fill="#000000" />
  <rect width="1" height="1" x="10" y="3" fill="#000000" />
  <rect width="1" height="1" x="11" y="3" fill="#000000" />
  <rect width="1" height="1" x="12" y="3" fill="#000000" />
  <rect width="1" height="1" x="13" y="3" fill="#000000" />
  <rect width="1" height="1" x="14" y="3" fill="#000000" />
  <rect width="1" height="1" x="16" y="3" fill="#000000" />
  <rect width="1" height="1" x="18" y="3" fill="#000000" />
  <rect width="1" height="1" x="19" y="3" fill="#000000" />
  <rect width="1" height="1" x="20" y="3" fill="#000000" />
  <rect width="1" height="1" x="21" y="3" fill="#000000" />
  <rect width="1" height="1" x="24" y="3" fill="#000000" />
  <rect width="1" height="1" x="25" y="3" fill="#000000" />
  <rect width="1" height="1" x="29" y="3" fill="#000000" />
  <rect width="1" height="1" x="31" y="3" fill="#000000" />
  <rect width="1" height="1" x="33" y="3" fill="#000000" />
  <rect width="1" height="1" x="34" y="3" fill="#000000" />
  <rect width="1" height="1" x="35" y="3" fill="#000000" />
  <rect width="1" height="1" x="37" y="3" fill="#000000" />
  <rect width="1" height="1" x="1" y="4" fill="#000000" />
  <rect width="1" height="1" x="3" y="4" fill="#000000" />
  <rect width="1" height="1" x="4" y="4" fill="#000000" />
  <rect width="1" height="1" x="5" y="4" fill="#000000" />
  <rect width="1" height="1" x="7" y="4" fill="#000000" />
  <rect width="1" height="1" x="10" y="4" fill="#000000" />
  <rect width="1" height="1" x="11" y="4" fill="#000000" />
  <rect width="1" height="1" x="12" y="4" fill="#000000" />
  <rect width="1" height="1" x="14" y="4" fill="#000000" />
  <rect width="1" height="1" x="15" y="4" fill="#000000" />
  <rect width="1" height="1" x="16" y="4" fill="#000000" />
  <rect width="1" height="1" x="17" y="4" fill="#000000" />
  <rect width="1" height="1" x="19" y="4" fill="#000000" />
  <rect width="1" height="1" x="20" y="4" fill="#000000" />
  <rect width="1" height="1" x="23" y="4" fill="#000000" />
  <rect width="1" height="1" x="25" y="4" fill="#000000" />
  <rect width="1" height="1" x="26" y="4" fill="#000000" />
  <rect width="1" height="1" x="27" y="4" fill="#000000" />
  <rect width="1" height="1" x="31" y="4" fill="#000000" />
  <rect width="1" height="1" x="33" y="4" fill="#000000" />
  <rect width="1" height="1" x="34" y="4" fill="#000000" />
  <rect width="1" height="1" x="35" y="4" fill="#000000" />
  <rect width="1" height="1" x="37" y="4" fill="#000000" />
  <rect width="1" height="1" x="1" y="5" fill="#000000" />
  <rect width="1" height="1" x="3" y="5" fill="#000000" />
  <rect width="1" height="1" x="4" y="5" fill="#000000" />
  <rect width="1" height="1" x="5" y="5" fill="#000000" />
  <rect width="1" height="1" x="7" y="5" fill="#000000" />
  <rect width="1" height="1" x="9" y="5" fill="#000000" />
  <rect width="1" height="1" x="14" y="5" fill="#000000" />
  <rect width="1" height="1" x="15" y="5" fill="#000000" />
  <rect width="1" height="1" x="17" y="5" fill="#000000" />
  <rect width="1" height="1" x="19" y="5" fill="#000000" />
  <rect width="1" height="1" x="22" y="5" fill="#000000" />
  <rect width="1" height="1" x="26" y="5" fill="#000000" />
  <rect width="1" height="1" x="29" y="5" fill="#000000" />
  <rect width="1" height="1" x="31" y="5" fill="#000000" />
  <rect width="1" height="1" x="33" y="5" fill="#000000" />
  <rect width="1" height="1" x="34" y="5" fill="#000000" />
  <rect width="1" height="1" x="35" y="5" fill="#000000" />
  <rect width="1" height="1" x="37" y="5" fill="#000000" />
  <rect width="1" height="1" x="1" y="6" fill="#000000" />
  <rect width="1" height="1" x="7" y="6" fill="#000000" />
  <rect width="1" height="1" x="9" y="6" fill="#000000" />
  <rect width="1" height="1" x="10" y="6" fill="#000000" />
  <rect width="1" height="1" x="12" y="6" fill="#000000" />
  <rect width="1" height="1" x="14" y="6" fill="#000000" />
  <rect width="1" height="1" x="15" y="6" fill="#000000" />
  <rect width="1" height="1" x="16" y="6" fill="#000000" />
  <rect width="1" height="1" x="18" y="6" fill="#000000" />
  <rect width="1" height="1" x="20" y="6" fill="#000000" />
  <rect width="1" height="1" x="21" y="6" fill="#000000" />
  <rect width="1" height="1" x="22" y="6" fill="#000000" />
  <rect width="1" height="1" x="23" y="6" fill="#000000" />
  <rect width="1" height="1" x="25" y="6" fill="#000000" />
  <rect width="1" height="1" x="26" y="6" fill="#000000" />
  <rect width="1" height="1" x="28" y="6" fill="#000000" />
  <rect width="1" height="1" x="29" y="6" fill="#000000" />
  <rect width="1" height="1" x="31" y="6" fill="#000000" />
  <rect width="1" height="1" x="37" y="6" fill="#000000" />
  <rect width="1" height="1" x="1" y="7" fill="#000000" />
  <rect width="1" height="1" x="2" y="7" fill="#000000" />
  <rect width="1" height="1" x="3" y="7" fill="#000000" />
  <rect width="1" height="1" x="4" y="7" fill="#000000" />
  <rect width="1" height="1" x="5" y="7" fill="#000000" />
  <rect width="1" height="1" x="6" y="7" fill="#000000" />
  <rect width="1" height="1" x="7" y="7" fill="#000000" />
  <rect width="1" height="1" x="9" y="7" fill="#000000" />
  <rect width="1" height="1" x="11" y="7" fill="#000000" />
  <rect width="1" height="1" x="13" y="7" fill="#000000" />
  <rect width="1" height="1" x="15" y="7" fill="#000000" />
  <rect width="1" height="1" x="17" y="7" fill="#000000" />
  <rect width="1" height="1" x="19" y="7" fill="#000000" />
  <rect width="1" height="1" x="21" y="7" fill="#000000" />
  <rect width="1" height="1" x="23" y="7" fill="#000000" />
  <rect width="1" height="1" x="25" y="7" fill="#000000" />
  <rect width="1" height="1" x="27" y="7" fill="#000000" />
  <rect width="1" height="1" x="29" y="7" fill="#000000" />
  <rect width="1" height="1" x="31" y="7" fill="#000000" />
  <rect width="1" height="1" x="32" y="7" fill="#000000" />
  <rect width="1" height="1" x="33" y="7" fill="#000000" />
  <rect width="1" height="1" x="34" y="7" fill="#000000" />
  <rect width="1" height="1" x="35" y="7" fill="#000000" />
  <rect width="1" height="1" x="36" y="7" fill="#000000" />
  <rect width="1" height="1" x="37" y="7" fill="#000000" />
  <rect width="1" height="1" x="9" y="8" fill="#000000" />
  <rect width="1" height="1" x="10" y="8" fill="#000000" />
  <rect width="1" height="1" x="13" y="8" fill="#000000" />
  <rect width="1" height="1" x="15" y="8" fill="#000000" />
  <rect width="1" height="1" x="16" y="8" fill="#000000" />
  <rect width="1" height="1" x="18" y="8" fill="#000000" />
  <rect width="1" height="1" x="21" y="8" fill="#000000" />
  <rect width="1" height="1" x="22" y="8" fill="#000000" />
  <rect width="1" height="1" x="24" y="8" fill="#000000" />
  <rect width="1" height="1" x="27" y="8" fill="#000000" />
  <rect width="1" height="1" x="1" y="9" fill="#000000" />
  <rect width="1" height="1" x="2" y="9" fill="#000000" />
  <rect width="1" height="1" x="4" y="9" fill="#000000" />
  <rect width="1" height="1" x="7" y="9" fill="#000000" />
  <rect width="1" height="1" x="8" y="9" fill="#000000" />
  <rect width="1" height="1" x="11" y="9" fill="#000000" />
  <rect width="1" height="1" x="17" y="9" fill="#000000" />
  <rect width="1" height="1" x="20" y="9" fill="#000000" />
  <rect width="1" height="1" x="25" y="9" fill="#000000" />
  <rect width="1" height="1" x="26" y="9" fill="#000000" />
  <rect width="1" height="1" x="28" y="9" fill="#000000" />
  <rect width="1" height="1" x="29" y="9" fill="#000000" />
  <rect width="1" height="1" x="31" y="9" fill="#000000" />
  <rect width="1" height="1" x="32" y="9" fill="#000000" />
  <rect width="1" height="1" x="33" y="9" fill="#000000" />
  <rect width="1" height="1" x="35" y="9" fill="#000000" />
  <rect width="1" height="1" x="36" y="9" fill="#000000" />
  <rect width="1" height="1" x="4" y="10" fill="#000000" />
  <rect width="1" height="1" x="5" y="10" fill="#000000" />
  <rect width="1" height="1" x="8" y="10" fill="#000000" />
  <rect width="1" height="1" x="9" y="10" fill="#000000" />
  <rect width="1" height="1" x="11" y="10" fill="#000000" />
  <rect width="1" height="1" x="12" y="10" fill="#000000" />
  <rect width="1" height="1" x="15" y="10" fill="#000000" />
  <rect width="1" height="1" x="16" y="10" fill="#000000" />
  <rect width="1" height="1" x="17" y="10" fill="#000000" />
  <rect width="1" height="1" x="18" y="10" fill="#000000" />
  <rect width="1" height="1" x="19" y="10" fill="#000000" />
  <rect width="1" height="1" x="21" y="10" fill="#000000" />
  <rect width="1" height="1" x="22" y="10" fill="#000000" />
  <rect width="1" height="1" x="24" y="10" fill="#000000" />
  <rect width="1" height="1" x="25" y="10" fill="#000000" />
  <rect width="1" height="1" x="26" y="10" fill="#000000" />
  <rect width="1" height="1" x="27" y="10" fill="#000000" />
  <rect width="1" height="1" x="29" y="10" fill="#000000" />
  <rect width="1" height="1" x="30" y="10" fill="#000000" />
  <rect width="1" height="1" x="31" y="10" fill="#000000" />
  <rect width="1" height="1" x="32" y="10" fill="#000000" />
  <rect width="1" height="1" x="34" y="10" fill="#000000" />
  <rect width="1" height="1" x="35" y="10" fill="#000000" />
  <rect width="1" height="1" x="37" y="10" fill="#000000" />
  <rect width="1" height="1" x="3" y="11" fill="#000000" />
  <rect width="1" height="1" x="4" y="11" fill="#000000" />
  <rect width="1" height="1" x="6" y="11" fill="#000000" />
  <rect width="1" height="1" x="7" y="11" fill="#000000" />
  <rect width="1" height="1" x="8" y="11" fill="#000000" />
  <rect width="1" height="1" x="18" y="11" fill="#000000" />
  <rect width="1" height="1" x="19" y="11" fill="#000000" />
  <rect width="1" height="1" x="20" y="11" fill="#000000" />
  <rect width="1" height="1" x="21" y="11" fill="#000000" />
  <rect width="1" height="1" x="22" y="11" fill="#000000" />
  <rect width="1" height="1" x="23" y="11" fill="#000000" />
  <rect width="1" height="1" x="25" y="11" fill="#000000" />
  <rect width="1" height="1" x="27" y="11" fill="#000000" />
  <rect width="1" height="1" x="31" y="11" fill="#000000" />
  <rect width="1" height="1" x="35" y="11" fill="#000000" />
  <rect width="1" height="1" x="37" y="11" fill="#000000" />
  <rect width="1" height="1" x="1" y="12" fill="#000000" />
  <rect width="1" height="1" x="2" y="12" fill="#000000" />
  <rect width="1" height="1" x="3" y="12" fill="#000000" />
  <rect width="1" height="1" x="4" y="12" fill="#000000" />
  <rect width="1" height="1" x="6" y="12" fill="#000000" />
  <rect width="1" height="1" x="9" y="12" fill="#000000" />
  <rect width="1" height="1" x="11" y="12" fill="#000000" />
  <rect width="1" height="1" x="15" y="12" fill="#000000" />
  <rect width="1" height="1" x="16" y="12" fill="#000000" />
  <rect width="1" height="1" x="19" y="12" fill="#000000" />
  <rect width="1" height="1" x="21" y="12" fill="#000000" />
  <rect width="1" height="1" x="22" y="12" fill="#000000" />
  <rect width="1" height="1" x="23" y="12" fill="#000000" />
  <rect width="1" height="1" x="24" y="12" fill="#000000" />
  <rect width="1" height="1" x="25" y="12" fill="#000000" />
  <rect width="1" height="1" x="26" y="12" fill="#000000" />
  <rect width="1" height="1" x="27" y="12" fill="#000000" />
  <rect width="1" height="1" x="30" y="12" fill="#000000" />
  <rect width="1" height="1" x="31" y="12" fill="#000000" />
  <rect width="1" height="1" x="34" y="12" fill="#000000" />
  <rect width="1" height="1" x="36" y="12" fill="#000000" />
  <rect width="1" height="1" x="37" y="12" fill="#000000" />
  <rect width="1" height="1" x="1" y="13" fill="#000000" />
  <rect width="1" height="1" x="2" y="13" fill="#000000" />
  <rect width="1" height="1" x="3" y="13" fill="#000000" />
  <rect width="1" height="1" x="4" y="13" fill="#000000" />
  <rect width="1" height="1" x="5" y="13" fill="#000000" />
  <rect width="1" height="1" x="7" y="13" fill="#000000" />
  <rect width="1" height="1" x="11" y="13" fill="#000000" />
  <rect width="1" height="1" x="13" y="13" fill="#000000" />
  <rect width="1" height="1" x="16" y="13" fill="#000000" />
  <rect width="1" height="1" x="20" y="13" fill="#000000" />
  <rect width="1" height="1" x="22" y="13" fill="#000000" />
  <rect width="1" height="1" x="23" y="13" fill="#000000" />
  <rect width="1" height="1" x="25" y="13" fill="#000000" />
  <rect width="1" height="1" x="28" y="13" fill="#000000" />
  <rect width="1" height="1" x="29" y="13" fill="#000000" />
  <rect width="1" height="1" x="30" y="13" fill="#000000" />
  <rect width="1" height="1" x="31" y="13" fill="#000000" />
  <rect width="1" height="1" x="37" y="13" fill="#000000" />
  <rect width="1" height="1" x="1" y="14" fill="#000000" />
  <rect width="1" height="1" x="2" y="14" fill="#000000" />
  <rect width="1" height="1" x="3" y="14" fill="#000000" />
  <rect width="1" height="1" x="5" y="14" fill="#000000" />
  <rect width="1" height="1" x="9" y="14" fill="#000000" />
  <rect width="1" height="1" x="12" y="14" fill="#000000" />
  <rect width="1" height="1" x="13" y="14" fill="#000000" />
  <rect width="1" height="1" x="17" y="14" fill="#000000" />
  <rect width="1" height="1" x="18" y="14" fill="#000000" />
  <rect width="1" height="1" x="20" y="14" fill="#000000" />
  <rect width="1" height="1" x="21" y="14" fill="#000000" />
  <rect width="1" height="1" x="23" y="14" fill="#000000" />
  <rect width="1" height="1" x="24" y="14" fill="#000000" />
  <rect width="1" height="1" x="25" y="14" fill="#000000" />
  <rect width="1" height="1" x="26" y="14" fill="#000000" />
  <rect width="1" height="1" x="27" y="14" fill="#000000" />
  <rect width="1" height="1" x="28" y="14" fill="#000000" />
  <rect width="1" height="1" x="30" y="14" fill="#000000" />
  <rect width="1" height="1" x="31" y="14" fill="#000000" />
  <rect width="1" height="1" x="37" y="14" fill="#000000" />
  <rect width="1" height="1" x="2" y="15" fill="#000000" />
  <rect width="1" height="1" x="3" y="15" fill="#000000" />
  <rect width="1" height="1" x="4" y="15" fill="#000000" />
  <rect width="1" height="1" x="6" y="15" fill="#000000" />
  <rect width="1" height="1" x="7" y="15" fill="#000000" />
  <rect width="1" height="1" x="8" y="15" fill="#000000" />
  <rect width="1" height="1" x="9" y="15" fill="#000000" />
  <rect width="1" height="1" x="13" y="15" fill="#000000" />
  <rect width="1" height="1" x="17" y="15" fill="#000000" />
  <rect width="1" height="1" x="18" y="15" fill="#000000" />
  <rect width="1" height="1" x="21" y="15" fill="#000000" />
  <rect width="1" height="1" x="24" y="15" fill="#000000" />
  <rect width="1" height="1" x="26" y="15" fill="#000000" />
  <rect width="1" height="1" x="31" y="15" fill="#000000" />
  <rect width="1" height="1" x="32" y="15" fill="#000000" />
  <rect width="1" height="1" x="34" y="15" fill="#000000" />
  <rect width="1" height="1" x="37" y="15" fill="#000000" />
  <rect width="1" height="1" x="1" y="16" fill="#000000" />
  <rect width="1" height="1" x="3" y="16" fill="#000000" />
  <rect width="1" height="1" x="4" y="16" fill="#000000" />
  <rect width="1" height="1" x="5" y="16" fill="#000000" />
  <rect width="1" height="1" x="8" y="16" fill="#000000" />
  <rect width="1" height="1" x="9" y="16" fill="#000000" />
  <rect width="1" height="1" x="10" y="16" fill="#000000" />
  <rect width="1" height="1" x="11" y="16" fill="#000000" />
  <rect width="1" height="1" x="13" y="16" fill="#000000" />
  <rect width="1" height="1" x="14" y="16" fill="#000000" />
  <rect width="1" height="1" x="15" y="16" fill="#000000" />
  <rect width="1" height="1" x="16" y="16" fill="#000000" />
  <rect width="1" height="1" x="17" y="16" fill="#000000" />
  <rect width="1" height="1" x="18" y="16" fill="#000000" />
  <rect width="1" height="1" x="19" y="16" fill="#000000" />
  <rect width="1" height="1" x="20" y="16" fill="#000000" />
  <rect width="1" height="1" x="21" y="16" fill="#000000" />
  <rect width="1" height="1" x="22" y="16" fill="#000000" />
  <rect width="1" height="1" x="23" y="16" fill="#000000" />
  <rect width="1" height="1" x="24" y="16" fill="#000000" />
  <rect width="1" height="1" x="26" y="16" fill="#000000" />
  <rect width="1" height="1" x="29" y="16" fill="#000000" />
  <rect width="1" height="1" x="34" y="16" fill="#000000" />
  <rect width="1" height="1" x="36" y="16" fill="#000000" />
  <rect width="1" height="1" x="1" y="17" fill="#000000" />
  <rect width="1" height="1" x="3" y="17" fill="#000000" />
  <rect width="1" height="1" x="4" y="17" fill="#000000" />
  <rect width="1" height="1" x="5" y="17" fill="#000000" />
  <rect width="1" height="1" x="7" y="17" fill="#000000" />
  <rect width="1" height="1" x="10" y="17" fill="#000000" />
  <rect width="1" height="1" x="12" y="17" fill="#000000" />
  <rect width="1" height="1" x="14" y="17" fill="#000000" />
  <rect width="1" height="1" x="15" y="17" fill="#000000" />
  <rect width="1" height="1" x="16" y="17" fill="#000000" />
  <rect width="1" height="1" x="21" y="17" fill="#000000" />
  <rect width="1" height="1" x="23" y="17" fill="#000000" />
  <rect width="1" height="1" x="24" y="17" fill="#000000" />
  <rect width="1" height="1" x="27" y="17" fill="#000000" />
  <rect width="1" height="1" x="30" y="17" fill="#000000" />
  <rect width="1" height="1" x="31" y="17" fill="#000000" />
  <rect width="1" height="1" x="32" y="17" fill="#000000" />
  <rect width="1" height="1" x="35" y="17" fill="#000000" />
  <rect width="1" height="1" x="37" y="17" fill="#000000" />
  <rect width="1" height="1" x="3" y="18" fill="#000000" />
  <rect width="1" height="1" x="4" y="18" fill="#000000" />
  <rect width="1" height="1" x="6" y="18" fill="#000000" />
  <rect width="1" height="1" x="11" y="18" fill="#000000" />
  <rect width="1" height="1" x="16" y="18" fill="#000000" />
  <rect width="1" height="1" x="17" y="18" fill="#000000" />
  <rect width="1" height="1" x="21" y="18" fill="#000000" />
  <rect width="1" height="1" x="22" y="18" fill="#000000" />
  <rect width="1" height="1" x="24" y="18" fill="#000000" />
  <rect width="1" height="1" x="25" y="18" fill="#000000" />
  <rect width="1" height="1" x="26" y="18" fill="#000000" />
  <rect width="1" height="1" x="29" y="18" fill="#000000" />
  <rect width="1" height="1" x="30" y="18" fill="#000000" />
  <rect width="1" height="1" x="31" y="18" fill="#000000" />
  <rect width="1" height="1" x="33" y="18" fill="#000000" />
  <rect width="1" height="1" x="35" y="18" fill="#000000" />
  <rect width="1" height="1" x="36" y="18" fill="#000000" />
  <rect width="1" height="1" x="37" y="18" fill="#000000" />
  <rect width="1" height="1" x="2" y="19" fill="#000000" />
  <rect width="1" height="1" x="3" y="19" fill="#000000" />
  <rect width="1" height="1" x="6" y="19" fill="#000000" />
  <rect width="1" height="1" x="7" y="19" fill="#000000" />
  <rect width="1" height="1" x="8" y="19" fill="#000000" />
  <rect width="1" height="1" x="10" y="19" fill="#000000" />
  <rect width="1" height="1" x="14" y="19" fill="#000000" />
  <rect width="1" height="1" x="17" y="19" fill="#000000" />
  <rect width="1" height="1" x="18" y="19" fill="#000000" />
  <rect width="1" height="1" x="25" y="19" fill="#000000" />
  <rect width="1" height="1" x="26" y="19" fill="#000000" />
  <rect width="1" height="1" x="30" y="19" fill="#000000" />
  <rect width="1" height="1" x="31" y="19" fill="#000000" />
  <rect width="1" height="1" x="32" y="19" fill="#000000" />
  <rect width="1" height="1" x="33" y="19" fill="#000000" />
  <rect width="1" height="1" x="34" y="19" fill="#000000" />
  <rect width="1" height="1" x="36" y="19" fill="#000000" />
  <rect width="1" height="1" x="37" y="19" fill="#000000" />
  <rect width="1" height="1" x="2" y="20" fill="#000000" />
  <rect width="1" height="1" x="6" y="20" fill="#000000" />
  <rect width="1" height="1" x="9" y="20" fill="#000000" />
  <rect width="1" height="1" x="11" y="20" fill="#000000" />
  <rect width="1" height="1" x="12" y="20" fill="#000000" />
  <rect width="1" height="1" x="14" y="20" fill="#000000" />
  <rect width="1" height="1" x="18" y="20" fill="#000000" />
  <rect width="1" height="1" x="20" y="20" fill="#000000" />
  <rect width="1" height="1" x="21" y="20" fill="#000000" />
  <rect width="1" height="1" x="22" y="20" fill="#000000" />
  <rect width="1" height="1" x="28" y="20" fill="#000000" />
  <rect width="1" height="1" x="29" y="20" fill="#000000" />
  <rect width="1" height="1" x="32" y="20" fill="#000000" />
  <rect width="1" height="1" x="33" y="20" fill="#000000" />
  <rect width="1" height="1" x="35" y="20" fill="#000000" />
  <rect width="1" height="1" x="36" y="20" fill="#000000" />
  <rect width="1" height="1" x="2" y="21" fill="#000000" />
  <rect width="1" height="1" x="4" y="21" fill="#000000" />
  <rect width="1" height="1" x="6" y="21" fill="#000000" />
  <rect width="1" height="1" x="7" y="21" fill="#000000" />
  <rect width="1" height="1" x="8" y="21" fill="#000000" />
  <rect width="1" height="1" x="12" y="21" fill="#000000" />
  <rect width="1" height="1" x="13" y="21" fill="#000000" />
  <rect width="1" height="1" x="15" y="21" fill="#000000" />
  <rect width="1" height="1" x="16" y="21" fill="#000000" />
  <rect width="1" height="1" x="17" y="21" fill="#000000" />
  <rect width="1" height="1" x="18" y="21" fill="#000000" />
  <rect width="1" height="1" x="21" y="21" fill="#000000" />
  <rect width="1" height="1" x="22" y="21" fill="#000000" />
  <rect width="1" height="1" x="24" y="21" fill="#000000" />
  <rect width="1" height="1" x="27" y="21" fill="#000000" />
  <rect width="1" height="1" x="29" y="21" fill="#000000" />
  <rect width="1" height="1" x="30" y="21" fill="#000000" />
  <rect width="1" height="1" x="31" y="21" fill="#000000" />
  <rect width="1" height="1" x="33" y="21" fill="#000000" />
  <rect width="1" height="1" x="34" y="21" fill="#000000" />
  <rect width="1" height="1" x="37" y="21" fill="#000000" />
  <rect width="1" height="1" x="2" y="22" fill="#000000" />
  <rect width="1" height="1" x="3" y="22" fill="#000000" />
  <rect width="1" height="1" x="4" y="22" fill="#000000" />
  <rect width="1" height="1" x="5" y="22" fill="#000000" />
  <rect width="1" height="1" x="9" y="22" fill="#000000" />
  <rect width="1" height="1" x="10" y="22" fill="#000000" />
  <rect width="1" height="1" x="12" y="22" fill="#000000" />
  <rect width="1" height="1" x="13" y="22" fill="#000000" />
  <rect width="1" height="1" x="14" y="22" fill="#000000" />
  <rect width="1" height="1" x="16" y="22" fill="#000000" />
  <rect width="1" height="1" x="17" y="22" fill="#000000" />
  <rect width="1" height="1" x="18" y="22" fill="#000000" />
  <rect width="1" height="1" x="26" y="22" fill="#000000" />
  <rect width="1" height="1" x="27" y="22" fill="#000000" />
  <rect width="1" height="1" x="28" y="22" fill="#000000" />
  <rect width="1" height="1" x="29" y="22" fill="#000000" />
  <rect width="1" height="1" x="30" y="22" fill="#000000" />
  <rect width="1" height="1" x="31" y="22" fill="#000000" />
  <rect width="1" height="1" x="34" y="22" fill="#000000" />
  <rect width="1" height="1" x="37" y="22" fill="#000000" />
  <rect width="1" height="1" x="3" y="23" fill="#000000" />
  <rect width="1" height="1" x="4" y="23" fill="#000000" />
  <rect width="1" height="1" x="5" y="23" fill="#000000" />
  <rect width="1" height="1" x="6" y="23" fill="#000000" />
  <rect width="1" height="1" x="7" y="23" fill="#000000" />
  <rect width="1" height="1" x="10" y="23" fill="#000000" />
  <rect width="1" height="1" x="12" y="23" fill="#000000" />
  <rect width="1" height="1" x="13" y="23" fill="#000000" />
  <rect width="1" height="1" x="14" y="23" fill="#000000" />
  <rect width="1" height="1" x="15" y="23" fill="#000000" />
  <rect width="1" height="1" x="18" y="23" fill="#000000" />
  <rect width="1" height="1" x="19" y="23" fill="#000000" />
  <rect width="1" height="1" x="20" y="23" fill="#000000" />
  <rect width="1" height="1" x="27" y="23" fill="#000000" />
  <rect width="1" height="1" x="30" y="23" fill="#000000" />
  <rect width="1" height="1" x="32" y="23" fill="#000000" />
  <rect width="1" height="1" x="34" y="23" fill="#000000" />
  <rect width="1" height="1" x="35" y="23" fill="#000000" />
  <rect width="1" height="1" x="36" y="23" fill="#000000" />
  <rect width="1" height="1" x="37" y="23" fill="#000000" />
  <rect width="1" height="1" x="1" y="24" fill="#000000" />
  <rect width="1" height="1" x="2" y="24" fill="#000000" />
  <rect width="1" height="1" x="3" y="24" fill="#000000" />
  <rect width="1" height="1" x="4" y="24" fill="#000000" />
  <rect width="1" height="1" x="5" y="24" fill="#000000" />
  <rect width="1" height="1" x="8" y="24" fill="#000000" />
  <rect width="1" height="1" x="9" y="24" fill="#000000" />
  <rect width="1" height="1" x="10" y="24" fill="#000000" />
  <rect width="1" height="1" x="12" y="24" fill="#000000" />
  <rect width="1" height="1" x="13" y="24" fill="#000000" />
  <rect width="1" height="1" x="14" y="24" fill="#000000" />
  <rect width="1" height="1" x="17" y="24" fill="#000000" />
  <rect width="1" height="1" x="19" y="24" fill="#000000" />
  <rect width="1" height="1" x="21" y="24" fill="#000000" />
  <rect width="1" height="1" x="22" y="24" fill="#000000" />
  <rect width="1" height="1" x="26" y="24" fill="#000000" />
  <rect width="1" height="1" x="29" y="24" fill="#000000" />
  <rect width="1" height="1" x="30" y="24" fill="#000000" />
  <rect width="1" height="1" x="31" y="24" fill="#000000" />
  <rect width="1" height="1" x="4" y="25" fill="#000000" />
  <rect width="1" height="1" x="7" y="25" fill="#000000" />
  <rect width="1" height="1" x="8" y="25" fill="#000000" />
  <rect width="1" height="1" x="10" y="25" fill="#000000" />
  <rect width="1" height="1" x="11" y="25" fill="#000000" />
  <rect width="1" height="1" x="12" y="25" fill="#000000" />
  <rect width="1" height="1" x="15" y="25" fill="#000000" />
  <rect width="1" height="1" x="16" y="25" fill="#000000" />
  <rect width="1" height="1" x="17" y="25" fill="#000000" />
  <rect width="1" height="1" x="18" y="25" fill="#000000" />
  <rect width="1" height="1" x="20" y="25" fill="#000000" />
  <rect width="1" height="1" x="21" y="25" fill="#000000" />
  <rect width="1" height="1" x="22" y="25" fill="#000000" />
  <rect width="1" height="1" x="24" y="25" fill="#000000" />
  <rect width="1" height="1" x="28" y="25" fill="#000000" />
  <rect width="1" height="1" x="29" y="25" fill="#000000" />
  <rect width="1" height="1" x="31" y="25" fill="#000000" />
  <rect width="1" height="1" x="36" y="25" fill="#000000" />
  <rect width="1" height="1" x="37" y="25" fill="#000000" />
  <rect width="1" height="1" x="3" y="26" fill="#000000" />
  <rect width="1" height="1" x="4" y="26" fill="#000000" />
  <rect width="1" height="1" x="5" y="26" fill="#000000" />
  <rect width="1" height="1" x="6" y="26" fill="#000000" />
  <rect width="1" height="1" x="12" y="26" fill="#000000" />
  <rect width="1" height="1" x="14" y="26" fill="#000000" />
  <rect width="1" height="1" x="15" y="26" fill="#000000" />
  <rect width="1" height="1" x="21" y="26" fill="#000000" />
  <rect width="1" height="1" x="22" y="26" fill="#000000" />
  <rect width="1" height="1" x="23" y="26" fill="#000000" />
  <rect width="1" height="1" x="24" y="26" fill="#000000" />
  <rect width="1" height="1" x="25" y="26" fill="#000000" />
  <rect width="1" height="1" x="31" y="26" fill="#000000" />
  <rect width="1" height="1" x="34" y="26" fill="#000000" />
  <rect width="1" height="1" x="37" y="26" fill="#000000" />
  <rect width="1" height="1" x="1" y="27" fill="#000000" />
  <rect width="1" height="1" x="5" y="27" fill="#000000" />
  <rect width="1" height="1" x="6" y="27" fill="#000000" />
  <rect width="1" height="1" x="7" y="27" fill="#000000" />
  <rect width="1" height="1" x="10" y="27" fill="#000000" />
  <rect width="1" height="1" x="11" y="27" fill="#000000" />
  <rect width="1" height="1" x="12" y="27" fill="#000000" />
  <rect width="1" height="1" x="14" y="27" fill="#000000" />
  <rect width="1" height="1" x="15" y="27" fill="#000000" />
  <rect width="1" height="1" x="17" y="27" fill="#000000" />
  <rect width="1" height="1" x="19" y="27" fill="#000000" />
  <rect width="1" height="1" x="22" y="27" fill="#000000" />
  <rect width="1" height="1" x="24" y="27" fill="#000000" />
  <rect width="1" height="1" x="25" y="27" fill="#000000" />
  <rect width="1" height="1" x="26" y="27" fill="#000000" />
  <rect width="1" height="1" x="27" y="27" fill="#000000" />
  <rect width="1" height="1" x="31" y="27" fill="#000000" />
  <rect width="1" height="1" x="34" y="27" fill="#000000" />
  <rect width="1" height="1" x="35" y="27" fill="#000000" />
  <rect width="1" height="1" x="37" y="27" fill="#000000" />
  <rect width="1" height="1" x="2" y="28" fill="#000000" />
  <rect width="1" height="1" x="3" y="28" fill="#000000" />
  <rect width="1" height="1" x="4" y="28" fill="#000000" />
  <rect width="1" height="1" x="6" y="28" fill="#000000" />
  <rect width="1" height="1" x="8" y="28" fill="#000000" />
  <rect width="1" height="1" x="9" y="28" fill="#000000" />
  <rect width="1" height="1" x="10" y="28" fill="#000000" />
  <rect width="1" height="1" x="12" y="28" fill="#000000" />
  <rect width="1" height="1" x="16" y="28" fill="#000000" />
  <rect width="1" height="1" x="18" y="28" fill="#000000" />
  <rect width="1" height="1" x="22" y="28" fill="#000000" />
  <rect width="1" height="1" x="24" y="28" fill="#000000" />
  <rect width="1" height="1" x="26" y="28" fill="#000000" />
  <rect width="1" height="1" x="27" y="28" fill="#000000" />
  <rect width="1" height="1" x="28" y="28" fill="#000000" />
  <rect width="1" height="1" x="29" y="28" fill="#000000" />
  <rect width="1" height="1" x="31" y="28" fill="#000000" />
  <rect width="1" height="1" x="33" y="28" fill="#000000" />
  <rect width="1" height="1" x="36" y="28" fill="#000000" />
  <rect width="1" height="1" x="1" y="29" fill="#000000" />
  <rect width="1" height="1" x="2" y="29" fill="#000000" />
  <rect width="1" height="1" x="3" y="29" fill="#000000" />
  <rect width="1" height="1" x="4" y="29" fill="#000000" />
  <rect width="1" height="1" x="6" y="29" fill="#000000" />
  <rect width="1" height="1" x="7" y="29" fill="#000000" />
  <rect width="1" height="1" x="8" y="29" fill="#000000" />
  <rect width="1" height="1" x="10" y="29" fill="#000000" />
  <rect width="1" height="1" x="13" y="29" fill="#000000" />
  <rect width="1" height="1" x="14" y="29" fill="#000000" />
  <rect width="1" height="1" x="16" y="29" fill="#000000" />
  <rect width="1" height="1" x="18" y="29" fill="#000000" />
  <rect width="1" height="1" x="20" y="29" fill="#000000" />
  <rect width="1" height="1" x="23" y="29" fill="#000000" />
  <rect width="1" height="1" x="28" y="29" fill="#000000" />
  <rect width="1" height="1" x="29" y="29" fill="#000000" />
  <rect width="1" height="1" x="30" y="29" fill="#000000" />
  <rect width="1" height="1" x="31" y="29" fill="#000000" />
  <rect width="1" height="1" x="32" y="29" fill="#000000" />
  <rect width="1" height="1" x="33" y="29" fill="#000000" />
  <rect width="1" height="1" x="35" y="29" fill="#000000" />
  <rect width="1" height="1" x="9" y="30" fill="#000000" />
  <rect width="1" height="1" x="10" y="30" fill="#000000" />
  <rect width="1" height="1" x="13" y="30" fill="#000000" />
  <rect width="1" height="1" x="14" y="30" fill="#000000" />
  <rect width="1" height="1" x="15" y="30" fill="#000000" />
  <rect width="1" height="1" x="16" y="30" fill="#000000" />
  <rect width="1" height="1" x="17" y="30" fill="#000000" />
  <rect width="1" height="1" x="18" y="30" fill="#000000" />
  <rect width="1" height="1" x="20" y="30" fill="#000000" />
  <rect width="1" height="1" x="23" y="30" fill="#000000" />
  <rect width="1" height="1" x="25" y="30" fill="#000000" />
  <rect width="1" height="1" x="28" y="30" fill="#000000" />
  <rect width="1" height="1" x="29" y="30" fill="#000000" />
  <rect width="1" height="1" x="33" y="30" fill="#000000" />
  <rect width="1" height="1" x="37" y="30" fill="#000000" />
  <rect width="1" height="1" x="1" y="31" fill="#000000" />
  <rect width="1" height="1" x="2" y="31" fill="#000000" />
  <rect width="1" height="1" x="3" y="31" fill="#000000" />
  <rect width="1" height="1" x="4" y="31" fill="#000000" />
  <rect width="1" height="1" x="5" y="31" fill="#000000" />
  <rect width="1" height="1" x="6" y="31" fill="#000000" />
  <rect width="1" height="1" x="7" y="31" fill="#000000" />
  <rect width="1" height="1" x="9" y="31" fill="#000000" />
  <rect width="1" height="1" x="10" y="31" fill="#000000" />
  <rect width="1" height="1" x="12" y="31" fill="#000000" />
  <rect width="1" height="1" x="13" y="31" fill="#000000" />
  <rect width="1" height="1" x="15" y="31" fill="#000000" />
  <rect width="1" height="1" x="18" y="31" fill="#000000" />
  <rect width="1" height="1" x="23" y="31" fill="#000000" />
  <rect width="1" height="1" x="25" y="31" fill="#000000" />
  <rect width="1" height="1" x="26" y="31" fill="#000000" />
  <rect width="1" height="1" x="27" y="31" fill="#000000" />
  <rect width="1" height="1" x="28" y="31" fill="#000000" />
  <rect width="1" height="1" x="29" y="31" fill="#000000" />
  <rect width="1" height="1" x="31" y="31" fill="#000000" />
  <rect width="1" height="1" x="33" y="31" fill="#000000" />
  <rect width="1" height="1" x="34" y="31" fill="#000000" />
  <rect width="1" height="1" x="36" y="31" fill="#000000" />
  <rect width="1" height="1" x="37" y="31" fill="#000000" />
  <rect width="1" height="1" x="1" y="32" fill="#000000" />
  <rect width="1" height="1" x="7" y="32" fill="#000000" />
  <rect width="1" height="1" x="10" y="32" fill="#000000" />
  <rect width="1" height="1" x="11" y="32" fill="#000000" />
  <rect width="1" height="1" x="13" y="32" fill="#000000" />
  <rect width="1" height="1" x="15" y="32" fill="#000000" />
  <rect width="1" height="1" x="18" y="32" fill="#000000" />
  <rect width="1" height="1" x="19" y="32" fill="#000000" />
  <rect width="1" height="1" x="20" y="32" fill="#000000" />
  <rect width="1" height="1" x="21" y="32" fill="#000000" />
  <rect width="1" height="1" x="22" y="32" fill="#000000" />
  <rect width="1" height="1" x="23" y="32" fill="#000000" />
  <rect width="1" height="1" x="29" y="32" fill="#000000" />
  <rect width="1" height="1" x="33" y="32" fill="#000000" />
  <rect width="1" height="1" x="35" y="32" fill="#000000" />
  <rect width="1" height="1" x="36" y="32" fill="#000000" />
  <rect width="1" height="1" x="37" y="32" fill="#000000" />
  <rect width="1" height="1" x="1" y="33" fill="#000000" />
  <rect width="1" height="1" x="3" y="33" fill="#000000" />
  <rect width="1" height="1" x="4" y="33" fill="#000000" />
  <rect width="1" height="1" x="5" y="33" fill="#000000" />
  <rect width="1" height="1" x="7" y="33" fill="#000000" />
  <rect width="1" height="1" x="24" y="33" fill="#000000" />
  <rect width="1" height="1" x="25" y="33" fill="#000000" />
  <rect width="1" height="1" x="27" y="33" fill="#000000" />
  <rect width="1" height="1" x="29" y="33" fill="#000000" />
  <rect width="1" height="1" x="30" y="33" fill="#000000" />
  <rect width="1" height="1" x="31" y="33" fill="#000000" />
  <rect width="1" height="1" x="32" y="33" fill="#000000" />
  <rect width="1" height="1" x="33" y="33" fill="#000000" />
  <rect width="1" height="1" x="37" y="33" fill="#000000" />
  <rect width="1" height="1" x="1" y="34" fill="#000000" />
  <rect width="1" height="1" x="3" y="34" fill="#000000" />
  <rect width="1" height="1" x="4" y="34" fill="#000000" />
  <rect width="1" height="1" x="5" y="34" fill="#000000" />
  <rect width="1" height="1" x="7" y="34" fill="#000000" />
  <rect width="1" height="1" x="9" y="34" fill="#000000" />
  <rect width="1" height="1" x="10" y="34" fill="#000000" />
  <rect width="1" height="1" x="11" y="34" fill="#000000" />
  <rect width="1" height="1" x="12" y="34" fill="#000000" />
  <rect width="1" height="1" x="15" y="34" fill="#000000" />
  <rect width="1" height="1" x="20" y="34" fill="#000000" />
  <rect width="1" height="1" x="21" y="34" fill="#000000" />
  <rect width="1" height="1" x="23" y="34" fill="#000000" />
  <rect width="1" height="1" x="24" y="34" fill="#000000" />
  <rect width="1" height="1" x="25" y="34" fill="#000000" />
  <rect width="1" height="1" x="27" y="34" fill="#000000" />
  <rect width="1" height="1" x="29" y="34" fill="#000000" />
  <rect width="1" height="1" x="32" y="34" fill="#000000" />
  <rect width="1" height="1" x="33" y="34" fill="#000000" />
  <rect width="1" height="1" x="35" y="34" fill="#000000" />
  <rect width="1" height="1" x="1" y="35" fill="#000000" />
  <rect width="1" height="1" x="3" y="35" fill="#000000" />
  <rect width="1" height="1" x="4" y="35" fill="#000000" />
  <rect width="1" height="1" x="5" y="35" fill="#000000" />
  <rect width="1" height="1" x="7" y="35" fill="#000000" />
  <rect width="1" height="1" x="11" y="35" fill="#000000" />
  <rect width="1" height="1" x="17" y="35" fill="#000000" />
  <rect width="1" height="1" x="20" y="35" fill="#000000" />
  <rect width="1" height="1" x="21" y="35" fill="#000000" />
  <rect width="1" height="1" x="25" y="35" fill="#000000" />
  <rect width="1" height="1" x="27" y="35" fill="#000000" />
  <rect width="1" height="1" x="30" y="35" fill="#000000" />
  <rect width="1" height="1" x="33" y="35" fill="#000000" />
  <rect width="1" height="1" x="35" y="35" fill="#000000" />
  <rect width="1" height="1" x="36" y="35" fill="#000000" />
  <rect width="1" height="1" x="37" y="35" fill="#000000" />
  <rect width="1" height="1" x="1" y="36" fill="#000000" />
  <rect width="1" height="1" x="7" y="36" fill="#000000" />
  <rect width="1" height="1" x="9" y="36" fill="#000000" />
  <rect width="1" height="1" x="10" y="36" fill="#000000" />
  <rect width="1" height="1" x="11" y="36" fill="#000000" />
  <rect width="1" height="1" x="15" y="36" fill="#000000" />
  <rect width="1" height="1" x="17" y="36" fill="#000000" />
  <rect width="1" height="1" x="19" y="36" fill="#000000" />
  <rect width="1" height="1" x="22" y="36" fill="#000000" />
  <rect width="1" height="1" x="25" y="36" fill="#000000" />
  <rect width="1" height="1" x="26" y="36" fill="#000000" />
  <rect width="1" height="1" x="27" y="36" fill="#000000" />
  <rect width="1" height="1" x="31" y="36" fill="#000000" />
  <rect width="1" height="1" x="33" y="36" fill="#000000" />
  <rect width="1" height="1" x="1" y="37" fill="#000000" />
  <rect width="1" height="1" x="2" y="37" fill="#000000" />
  <rect width="1" height="1" x="3" y="37" fill="#000000" />
  <rect width="1" height="1" x="4" y="37" fill="#000000" />
  <rect width="1" height="1" x="5" y="37" fill="#000000" />
  <rect width="1" height="1" x="6" y="37" fill="#000000" />
  <rect width="1" height="1" x="7" y="37" fill="#000000" />
  <rect width="1" height="1" x="9" y="37" fill="#000000" />
  <rect width="1" height="1" x="10" y="37" fill="#000000" />
  <rect width="1" height="1" x="11" y="37" fill="#000000" />
  <rect width="1" height="1" x="13" y="37" fill="#000000" />
  <rect width="1" height="1" x="16" y="37" fill="#000000" />
  <rect width="1" height="1" x="17" y="37" fill="#000000" />
  <rect width="1" height="1" x="21" y="37" fill="#000000" />
  <rect width="1" height="1" x="22" y="37" fill="#000000" />
  <rect width="1" height="1" x="28" y="37" fill="#000000" />
  <rect width="1" height="1" x="29" y="37" fill="#000000" />
  <rect width="1" height="1" x="31" y="37" fill="#000000" />
  <rect width="1" height="1" x="33" y="37" fill="#000000" />
  <rect width="1" height="1" x="36" y="37" fill="#000000" />
  <rect width="1" height="1" x="37" y="37" fill="#000000" />
</svg>