<svg height="39" width="39" xmlns="http://www.w3.org/2000/svg">  <rect width="39" height="39" x="0" y="0" fill="#ffffff" />
  <rect width="1" height="1" x="1" y="1" fill="#000000" />
  <rect width="1" height="1" x="2" y="1" fill="#000000" />
  <rect width="1" height="1" x="3" y="1" fill="#000000" />
  <rect width="1" height="1" x="4" y="1" fill="#000000" />
  <rect width="1" height="1" x="5" y="1" fill="#000000" />
  <rect width="1" height="1" x="6" y="1" fill="#000000" />
  <rect width="1" height="1" x="7" y="1" fill="#000000" />
  <rect width="1" height="1" x="11" y="1" fill="#000000" />
  <rect width="1" height="1" x="13" y="1" fill="#000000" />
  <rect width="1" height="1" x="14" y="1" fill="#000000" />
  <rect width="1" height="1" x="16" y="1" fill="#000000" />
  <rect width="1" height="1" x="20" y="1" fill="#000000" />
  <rect width="1" height="1" x="21" y="1" fill="#000000" />
  <rect width="1" height="1" x="22" y="1" fill="#000000" />
  <rect width="1" height="1" x="24" y="1" fill="#000000" />
  <rect width="1" height="1" x="25" y="1" fill="#000000" />
  <rect width="1" height="1" x="26" y="1" fill="#000000" />
  <rect width="1" height="1" x="29" y="1" fill="#000000" />
  <rect width="1" height="1" x="31" y="1" fill="#000000" />
  <rect width="1" height="1" x="32" y="1" fill="#000000" />
  <rect width="1" height="1" x="33" y="1" fill="#000000" />
  <rect width="1" height="1" x="34" y="1" fill="#000000" />
  <rect width="1" height="1" x="35" y="1" fill="#000000" />
  <rect width="1" height="1" x="36" y="1" fill="#000000" />
  <rect width="1" height="1" x="37" y="1" fill="#000000" />
  <rect width="1" height="1" x="1" y="2" fill="#000000" />
  <rect width="1" height="1" x="7" y="2" fill="#000000" />
  <rect width="1" height="1" x="9" y="2" fill="#000000" />
  <rect width="1" height="1" x="11" y="2" fill="#000000" />
  <rect width="1" height="1" x="14" y="2" fill="#000000" />
  <rect width="1" height="1" x="15" y="2" fill="#000000" />
  <rect width="1" height="1" x="16" y="2" fill="#000000" />
  <rect width="1" height="1" x="23" y="2" fill="#000000" />
  <rect width="1" height="1" x="25" y="2" fill="#000000" />
  <rect width="1" height="1" x="28" y="2" fill="#000000" />
  <rect width="1" height="1" x="31" y="2" fill="#000000" />
  <rect width="1" height="1" x="37" y="2" fill="#000000" />
  <rect width="1" height="1" x="1" y="3" fill="#000000" />
  <rect width="1" height="1" x="3" y="3" fill="#000000" />
  <rect width="1" height="1" x="4" y="3" fill="#000000" />
  <rect width="1" height="1" x="5" y="3" fill="#000000" />
  <rect width="1" height="1" x="7" y="3" fill="#000000" />
  <rect width="1" height="1" x="13" y="3" fill="#000000" />
  <rect width="1" height="1" x="14" y="3" fill="#000000" />
  <rect width="1" height="1" x="16" y="3" fill="#000000" />
  <rect width="1" height="1" x="20" y="3" fill="#000000" />
  <rect width="1" height="1" x="21" y="3" fill="#000000" />
  <rect width="1" height="1" x="22" y="3" fill="#000000" />
  <rect width="1" height="1" x="28" y="3" fill="#000000" />
  <rect width="1" height="1" x="31" y="3" fill="#000000" />
  <rect width="1" height="1" x="33" y="3" fill="#000000" />
  <rect width="1" height="1" x="34" y="3" fill="#000000" />
  <rect width="1" height="1" x="35" y="3" fill="#000000" />
  <rect width="1" height="1" x="37" y="3" fill="#000000" />
  <rect width="1" height="1" x="1" y="4" fill="#000000" />
  <rect width="1" height="1" x="3" y="4" fill="#000000" />
  <rect width="1" height="1" x="4" y="4" fill="#000000" />
  <rect width="1" height="1" x="5" y="4" fill="#000000" />
  <rect width="1" height="1" x="7" y="4" fill="#000000" />
  <rect width="1" height="1" x="9" y="4" fill="#000000" />
  <rect width="1" height="1" x="10" y="4" fill="#000000" />
  <rect width="1" height="1" x="11" y="4" fill="#000000" />
  <rect width="1" height="1" x="13" y="4" fill="#000000" />
  <rect width="1" height="1" x="15" y="4" fill="#000000" />
  <rect width="1" height="1" x="16" y="4" fill="#000000" />
  <rect width="1" height="1" x="17" y="4" fill="#000000" />
  <rect width="1" height="1" x="18" y="4" fill="#000000" />
  <rect width="1" height="1" x="20" y="4" fill="#000000" />
  <rect width="1" height="1" x="23" y="4" fill="#000000" />
  <rect width="1" height="1" x="26" y="4" fill="#000000" />
  <rect width="1" height="1" x="27" y="4" fill="#000000" />
  <rect width="1" height="1" x="28" y="4" fill="#000000" />
  <rect width="1" height="1" x="29" y="4" fill="#000000" />
  <rect width="1" height="1" x="31" y="4" fill="#000000" />
  <rect width="1" height="1" x="33" y="4" fill="#000000" />
  <rect width="1" height="1" x="34" y="4" fill="#000000" />
  <rect width="1" height="1" x="35" y="4" fill="#000000" />
  <rect width="1" height="1" x="37" y="4" fill="#000000" />
  <rect width="1" height="1" x="1" y="5" fill="#000000" />
  <rect width="1" height="1" x="3" y="5" fill="#000000" />
  <rect width="1" height="1" x="4" y="5" fill="#000000" />
  <rect width="1" height="1" x="5" y="5" fill="#000000" />
  <rect width="1" height="1" x="7" y="5" fill="#000000" />
  <rect width="1" height="1" x="10" y="5" fill="#000000" />
  <rect width="1" height="1" x="18" y="5" fill="#000000" />
  <rect width="1" height="1" x="19" y="5" fill="#000000" />
  <rect width="1" height="1" x="20" y="5" fill="#000000" />
  <rect width="1" height="1" x="21" y="5" fill="#000000" />
  <rect width="1" height="1" x="22" y="5" fill="#000000" />
  <rect width="1" height="1" x="23" y="5" fill="#000000" />
  <rect width="1" height="1" x="24" y="5" fill="#000000" />
  <rect width="1" height="1" x="25" y="5" fill="#000000" />
  <rect width="1" height="1" x="26" y="5" fill="#000000" />
  <rect width="1" height="1" x="29" y="5" fill="#000000" />
  <rect width="1" height="1" x="31" y="5" fill="#000000" />
  <rect width="1" height="1" x="33" y="5" fill="#000000" />
  <rect width="1" height="1" x="34" y="5" fill="#000000" />
  <rect width="1" height="1" x="35" y="5" fill="#000000" />
  <rect width="1" height="1" x="37" y="5" fill="#000000" />
  <rect width="1" height="1" x="1" y="6" fill="#000000" />
  <rect width="1" height="1" x="7" y="6" fill="#000000" />
  <rect width="1" height="1" x="9" y="6" fill="#000000" />
  <rect width="1" height="1" x="10" y="6" fill="#000000" />
  <rect width="1" height="1" x="12" y="6" fill="#000000" />
  <rect width="1" height="1" x="13" y="6" fill="#000000" />
  <rect width="1" height="1" x="16" y="6" fill="#000000" />
  <rect width="1" height="1" x="17" y="6" fill="#000000" />
  <rect width="1" height="1" x="21" y="6" fill="#000000" />
  <rect width="1" height="1" x="22" y="6" fill="#000000" />
  <rect width="1" height="1" x="23" y="6" fill="#000000" />
  <rect width="1" height="1" x="26" y="6" fill="#000000" />
  <rect width="1" height="1" x="27" y="6" fill="#000000" />
  <rect width="1" height="1" x="28" y="6" fill="#000000" />
  <rect width="1" height="1" x="29" y="6" fill="#000000" />
  <rect width="1" height="1" x="31" y="6" fill="#000000" />
  <rect width="1" height="1" x="37" y="6" fill="#000000" />
  <rect width="1" height="1" x="1" y="7" fill="#000000" />
  <rect width="1" height="1" x="2" y="7" fill="#000000" />
  <rect width="1" height="1" x="3" y="7" fill="#000000" />
  <rect width="1" height="1" x="4" y="7" fill="#000000" />
  <rect width="1" height="1" x="5" y="7" fill="#000000" />
  <rect width="1" height="1" x="6" y="7" fill="#000000" />
  <rect width="1" height="1" x="7" y="7" fill="#000000" />
  <rect width="1" height="1" x="9" y="7" fill="#000000" />
  <rect width="1" height="1" x="11" y="7" fill="#000000" />
  <rect width="1" height="1" x="13" y="7" fill="#000000" />
  <rect width="1" height="1" x="15" y="7" fill="#000000" />
  <rect width="1" height="1" x="17" y="7" fill="#000000" />
  <rect width="1" height="1" x="19" y="7" fill="#000000" />
  <rect width="1" height="1" x="21" y="7" fill="#000000" />
  <rect width="1" height="1" x="23" y="7" fill="#000000" />
  <rect width="1" height="1" x="25" y="7" fill="#000000" />
  <rect width="1" height="1" x="27" y="7" fill="#000000" />
  <rect width="1" height="1" x="29" y="7" fill="#000000" />
  <rect width="1" height="1" x="31" y="7" fill="#000000" />
  <rect width="1" height="1" x="32" y="7" fill="#000000" />
  <rect width="1" height="1" x="33" y="7" fill="#000000" />
  <rect width="1" height="1" x="34" y="7" fill="#000000" />
  <rect width="1" height="1" x="35" y="7" fill="#000000" />
  <rect width="1" height="1" x="36" y="7" fill="#000000" />
  <rect width="1" height="1" x="37" y="7" fill="#000000" />
  <rect width="1" height="1" x="10" y="8" fill="#000000" />
  <rect width="1" height="1" x="11" y="8" fill="#000000" />
  <rect width="1" height="1" x="12" y="8" fill="#000000" />
  <rect width="1" height="1" x="15" y="8" fill="#000000" />
  <rect width="1" height="1" x="16" y="8" fill="#000000" />
  <rect width="1" height="1" x="17" y="8" fill="#000000" />
  <rect width="1" height="1" x="20" y="8" fill="#000000" />
  <rect width="1" height="1" x="21" y="8" fill="#000000" />
  <rect width="1" height="1" x="22" y="8" fill="#000000" />
  <rect width="1" height="1" x="27" y="8" fill="#000000" />
  <rect width="1" height="1" x="29" y="8" fill="#000000" />
  <rect width="1" height="1" x="1" y="9" fill="#000000" />
  <rect width="1" height="1" x="2" y="9" fill="#000000" />
  <rect width="1" height="1" x="3" y="9" fill="#000000" />
  <rect width="1" height="1" x="4" y="9" fill="#000000" />
  <rect width="1" height="1" x="5" y="9" fill="#000000" />
  <rect width="1" height="1" x="7" y="9" fill="#000000" />
  <rect width="1" height="1" x="8" y="9" fill="#000000" />
  <rect width="1" height="1" x="9" y="9" fill="#000000" />
  <rect width="1" height="1" x="10" y="9" fill="#000000" />
  <rect width="1" height="1" x="12" y="9" fill="#000000" />
  <rect width="1" height="1" x="17" y="9" fill="#000000" />
  <rect width="1" height="1" x="18" y="9" fill="#000000" />
  <rect width="1" height="1" x="20" y="9" fill="#000000" />
  <rect width="1" height="1" x="21" y="9" fill="#000000" />
  <rect width="1" height="1" x="23" y="9" fill="#000000" />
  <rect width="1" height="1" x="26" y="9" fill="#000000" />
  <rect width="1" height="1" x="27" y="9" fill="#000000" />
  <rect width="1" height="1" x="29" y="9" fill="#000000" />
  <rect width="1" height="1" x="30" y="9" fill="#000000" />
  <rect width="1" height="1" x="32" y="9" fill="#000000" />
  <rect width="1" height="1" x="34" y="9" fill="#000000" />
  <rect width="1" height="1" x="36" y="9" fill="#000000" />
  <rect width="1" height="1" x="1" y="10" fill="#000000" />
  <rect width="1" height="1" x="2" y="10" fill="#000000" />
  <rect width="1" height="1" x="4" y="10" fill="#000000" />
  <rect width="1" height="1" x="10" y="10" fill="#000000" />
  <rect width="1" height="1" x="11" y="10" fill="#000000" />
  <rect width="1" height="1" x="13" y="10" fill="#000000" />
  <rect width="1" height="1" x="14" y="10" fill="#000000" />
  <rect width="1" height="1" x="15" y="10" fill="#000000" />
  <rect width="1" height="1" x="19" y="10" fill="#000000" />
  <rect width="1" height="1" x="21" y="10" fill="#000000" />
  <rect width="1" height="1" x="22" y="10" fill="#000000" />
  <rect width="1" height="1" x="24" y="10" fill="#000000" />
  <rect width="1" height="1" x="25" y="10" fill="#000000" />
  <rect width="1" height="1" x="26" y="10" fill="#000000" />
  <rect width="1" height="1" x="30" y="10" fill="#000000" />
  <rect width="1" height="1" x="32" y="10" fill="#000000" />
  <rect width="1" height="1" x="34" y="10" fill="#000000" />
  <rect width="1" height="1" x="35" y="10" fill="#000000" />
  <rect width="1" height="1" x="36" y="10" fill="#000000" />
  <rect width="1" height="1" x="3" y="11" fill="#000000" />
  <rect width="1" height="1" x="4" y="11" fill="#000000" />
  <rect width="1" height="1" x="5" y="11" fill="#000000" />
  <rect width="1" height="1" x="6" y="11" fill="#000000" />
  <rect width="1" height="1" x="7" y="11" fill="#000000" />
  <rect width="1" height="1" x="9" y="11" fill="#000000" />
  <rect width="1" height="1" x="14" y="11" fill="#000000" />
  <rect width="1" height="1" x="15" y="11" fill="#000000" />
  <rect width="1" height="1" x="16" y="11" fill="#000000" />
  <rect width="1" height="1" x="18" y="11" fill="#000000" />
  <rect width="1" height="1" x="19" y="11" fill="#000000" />
  <rect width="1" height="1" x="21" y="11" fill="#000000" />
  <rect width="1" height="1" x="22" y="11" fill="#000000" />
  <rect width="1" height="1" x="23" y="11" fill="#000000" />
  <rect width="1" height="1" x="25" y="11" fill="#000000" />
  <rect width="1" height="1" x="26" y="11" fill="#000000" />
  <rect width="1" height="1" x="27" y="11" fill="#000000" />
  <rect width="1" height="1" x="28" y="11" fill="#000000" />
  <rect width="1" height="1" x="29" y="11" fill="#000000" />
  <rect width="1" height="1" x="31" y="11" fill="#000000" />
  <rect width="1" height="1" x="32" y="11" fill="#000000" />
  <rect width="1" height="1" x="34" y="11" fill="#000000" />
  <rect width="1" height="1" x="35" y="11" fill="#000000" />
  <rect width="1" height="1" x="37" y="11" fill="#000000" />
  <rect width="1" height="1" x="1" y="12" fill="#000000" />
  <rect width="1" height="1" x="3" y="12" fill="#000000" />
  <rect width="1" height="1" x="4" y="12" fill="#000000" />
  <rect width="1" height="1" x="6" y="12" fill="#000000" />
  <rect width="1" height="1" x="8" y="12" fill="#000000" />
  <rect width="1" height="1" x="9" y="12" fill="#000000" />
  <rect width="1" height="1" x="11" y="12" fill="#000000" />
  <rect width="1" height="1" x="13" y="12" fill="#000000" />
  <rect width="1" height="1" x="14" y="12" fill="#000000" />
  <rect width="1" height="1" x="16" y="12" fill="#000000" />
  <rect width="1" height="1" x="17" y="12" fill="#000000" />
  <rect width="1" height="1" x="19" y="12" fill="#000000" />
  <rect width="1" height="1" x="21" y="12" fill="#000000" />
  <rect width="1" height="1" x="22" y="12" fill="#000000" />
  <rect width="1" height="1" x="23" y="12" fill="#000000" />
  <rect width="1" height="1" x="24" y="12" fill="#000000" />
  <rect width="1" height="1" x="25" y="12" fill="#000000" />
  <rect width="1" height="1" x="29" y="12" fill="#000000" />
  <rect width="1" height="1" x="31" y="12" fill="#000000" />
  <rect width="1" height="1" x="34" y="12" fill="#000000" />
  <rect width="1" height="1" x="36" y="12" fill="#000000" />
  <rect width="1" height="1" x="2" y="13" fill="#000000" />
  <rect width="1" height="1" x="5" y="13" fill="#000000" />
  <rect width="1" height="1" x="6" y="13" fill="#000000" />
  <rect width="1" height="1" x="7" y="13" fill="#000000" />
  <rect width="1" height="1" x="9" y="13" fill="#000000" />
  <rect width="1" height="1" x="10" y="13" fill="#000000" />
  <rect width="1" height="1" x="11" y="13" fill="#000000" />
  <rect width="1" height="1" x="13" y="13" fill="#000000" />
  <rect width="1" height="1" x="15" y="13" fill="#000000" />
  <rect width="1" height="1" x="16" y="13" fill="#000000" />
  <rect width="1" height="1" x="17" y="13" fill="#000000" />
  <rect width="1" height="1" x="18" y="13" fill="#000000" />
  <rect width="1" height="1" x="23" y="13" fill="#000000" />
  <rect width="1" height="1" x="26" y="13" fill="#000000" />
  <rect width="1" height="1" x="27" y="13" fill="#000000" />
  <rect width="1" height="1" x="30" y="13" fill="#000000" />
  <rect width="1" height="1" x="31" y="13" fill="#000000" />
  <rect width="1" height="1" x="33" y="13" fill="#000000" />
  <rect width="1" height="1" x="34" y="13" fill="#000000" />
  <rect width="1" height="1" x="35" y="13" fill="#000000" />
  <rect width="1" height="1" x="37" y="13" fill="#000000" />
  <rect width="1" height="1" x="2" y="14" fill="#000000" />
  <rect width="1" height="1" x="8" y="14" fill="#000000" />
  <rect width="1" height="1" x="10" y="14" fill="#000000" />
  <rect width="1" height="1" x="11" y="14" fill="#000000" />
  <rect width="1" height="1" x="17" y="14" fill="#000000" />
  <rect width="1" height="1" x="19" y="14" fill="#000000" />
  <rect width="1" height="1" x="20" y="14" fill="#000000" />
  <rect width="1" height="1" x="21" y="14" fill="#000000" />
  <rect width="1" height="1" x="23" y="14" fill="#000000" />
  <rect width="1" height="1" x="24" y="14" fill="#000000" />
  <rect width="1" height="1" x="25" y="14" fill="#000000" />
  <rect width="1" height="1" x="30" y="14" fill="#000000" />
  <rect width="1" height="1" x="32" y="14" fill="#000000" />
  <rect width="1" height="1" x="35" y="14" fill="#000000" />
  <rect width="1" height="1" x="36" y="14" fill="#000000" />
  <rect width="1" height="1" x="1" y="15" fill="#000000" />
  <rect width="1" height="1" x="4" y="15" fill="#000000" />
  <rect width="1" height="1" x="5" y="15" fill="#000000" />
  <rect width="1" height="1" x="7" y="15" fill="#000000" />
  <rect width="1" height="1" x="8" y="15" fill="#000000" />
  <rect width="1" height="1" x="11" y="15" fill="#000000" />
  <rect width="1" height="1" x="12" y="15" fill="#000000" />
  <rect width="1" height="1" x="13" y="15" fill="#000000" />
  <rect width="1" height="1" x="16" y="15" fill="#000000" />
  <rect width="1" height="1" x="22" y="15" fill="#000000" />
  <rect width="1" height="1" x="25" y="15" fill="#000000" />
  <rect width="1" height="1" x="27" y="15" fill="#000000" />
  <rect width="1" height="1" x="28" y="15" fill="#000000" />
  <rect width="1" height="1" x="31" y="15" fill="#000000" />
  <rect width="1" height="1" x="32" y="15" fill="#000000" />
  <rect width="1" height="1" x="33" y="15" fill="#000000" />
  <rect width="1" height="1" x="35" y="15" fill="#000000" />
  <rect width="1" height="1" x="36" y="15" fill="#000000" />
  <rect width="1" height="1" x="37" y="15" fill="#000000" />
  <rect width="1" height="1" x="1" y="16" fill="#000000" />
  <rect width="1" height="1" x="2" y="16" fill="#000000" />
  <rect width="1" height="1" x="3" y="16" fill="#000000" />
  <rect width="1" height="1" x="8" y="16" fill="#000000" />
  <rect width="1" height="1" x="11" y="16" fill="#000000" />
  <rect width="1" height="1" x="12" y="16" fill="#000000" />
  <rect width="1" height="1" x="15" y="16" fill="#000000" />
  <rect width="1" height="1" x="17" y="16" fill="#000000" />
  <rect width="1" height="1" x="20" y="16" fill="#000000" />
  <rect width="1" height="1" x="21" y="16" fill="#000000" />
  <rect width="1" height="1" x="22" y="16" fill="#000000" />
  <rect width="1" height="1" x="25" y="16" fill="#000000" />
  <rect width="1" height="1" x="27" y="16" fill="#000000" />
  <rect width="1" height="1" x="28" y="16" fill="#000000" />
  <rect width="1" height="1" x="29" y="16" fill="#000000" />
  <rect width="1" height="1" x="31" y="16" fill="#000000" />
  <rect width="1" height="1" x="34" y="16" fill="#000000" />
  <rect width="1" height="1" x="37" y="16" fill="#000000" />
  <rect width="1" height="1" x="1" y="17" fill="#000000" />
  <rect width="1" height="1" x="2" y="17" fill="#000000" />
  <rect width="1" height="1" x="4" y="17" fill="#000000" />
  <rect width="1" height="1" x="6" y="17" fill="#000000" />
  <rect width="1" height="1" x="7" y="17" fill="#000000" />
  <rect width="1" height="1" x="9" y="17" fill="#000000" />
  <rect width="1" height="1" x="10" y="17" fill="#000000" />
  <rect width="1" height="1" x="12" y="17" fill="#000000" />
  <rect width="1" height="1" x="18" y="17" fill="#000000" />
  <rect width="1" height="1" x="20" y="17" fill="#000000" />
  <rect width="1" height="1" x="23" y="17" fill="#000000" />
  <rect width="1" height="1" x="26" y="17" fill="#000000" />
  <rect width="1" height="1" x="28" y="17" fill="#000000" />
  <rect width="1" height="1" x="31" y="17" fill="#000000" />
  <rect width="1" height="1" x="32" y="17" fill="#000000" />
  <rect width="1" height="1" x="33" y="17" fill="#000000" />
  <rect width="1" height="1" x="34" y="17" fill="#000000" />
  <rect width="1" height="1" x="35" y="17" fill="#000000" />
  <rect width="1" height="1" x="37" y="17" fill="#000000" />
  <rect width="1" height="1" x="1" y="18" fill="#000000" />
  <rect width="1" height="1" x="2" y="18" fill="#000000" />
  <rect width="1" height="1" x="3" y="18" fill="#000000" />
  <rect width="1" height="1" x="4" y="18" fill="#000000" />
  <rect width="1" height="1" x="5" y="18" fill="#000000" />
  <rect width="1" height="1" x="6" y="18" fill="#000000" />
  <rect width="1" height="1" x="8" y="18" fill="#000000" />
  <rect width="1" height="1" x="9" y="18" fill="#000000" />
  <rect width="1" height="1" x="13" y="18" fill="#000000" />
  <rect width="1" height="1" x="14" y="18" fill="#000000" />
  <rect width="1" height="1" x="15" y="18" fill="#000000" />
  <rect width="1" height="1" x="17" y="18" fill="#000000" />
  <rect width="1" height="1" x="20" y="18" fill="#000000" />
  <rect width="1" height="1" x="21" y="18" fill="#000000" />
  <rect width="1" height="1" x="22" y="18" fill="#000000" />
  <rect width="1" height="1" x="23" y="18" fill="#000000" />
  <rect width="1" height="1" x="24" y="18" fill="#000000" />
  <rect width="1" height="1" x="25" y="18" fill="#000000" />
  <rect width="1" height="1" x="26" y="18" fill="#000000" />
  <rect width="1" height="1" x="27" y="18" fill="#000000" />
  <rect width="1" height="1" x="29" y="18" fill="#000000" />
  <rect width="1" height="1" x="32" y="18" fill="#000000" />
  <rect width="1" height="1" x="35" y="18" fill="#000000" />
  <rect width="1" height="1" x="36" y="18" fill="#000000" />
  <rect width="1" height="1" x="2" y="19" fill="#000000" />
  <rect width="1" height="1" x="3" y="19" fill="#000000" />
  <rect width="1" height="1" x="5" y="19" fill="#000000" />
  <rect width="1" height="1" x="6" y="19" fill="#000000" />
  <rect width="1" height="1" x="7" y="19" fill="#000000" />
  <rect width="1" height="1" x="9" y="19" fill="#000000" />
  <rect width="1" height="1" x="11" y="19" fill="#000000" />
  <rect width="1" height="1" x="14" y="19" fill="#000000" />
  <rect width="1" height="1" x="15" y="19" fill="#000000" />
  <rect width="1" height="1" x="16" y="19" fill="#000000" />
  <rect width="1" height="1" x="17" y="19" fill="#000000" />
  <rect width="1" height="1" x="18" y="19" fill="#000000" />
  <rect width="1" height="1" x="19" y="19" fill="#000000" />
  <rect width="1" height="1" x="21" y="19" fill="#000000" />
  <rect width="1" height="1" x="22" y="19" fill="#000000" />
  <rect width="1" height="1" x="23" y="19" fill="#000000" />
  <rect width="1" height="1" x="27" y="19" fill="#000000" />
  <rect width="1" height="1" x="28" y="19" fill="#000000" />
  <rect width="1" height="1" x="30" y="19" fill="#000000" />
  <rect width="1" height="1" x="35" y="19" fill="#000000" />
  <rect width="1" height="1" x="36" y="19" fill="#000000" />
  <rect width="1" height="1" x="37" y="19" fill="#000000" />
  <rect width="1" height="1" x="1" y="20" fill="#000000" />
  <rect width="1" height="1" x="2" y="20" fill="#000000" />
  <rect width="1" height="1" x="4" y="20" fill="#000000" />
  <rect width="1" height="1" x="8" y="20" fill="#000000" />
  <rect width="1" height="1" x="9" y="20" fill="#000000" />
  <rect width="1" height="1" x="13" y="20" fill="#000000" />
  <rect width="1" height="1" x="14" y="20" fill="#000000" />
  <rect width="1" height="1" x="16" y="20" fill="#000000" />
  <rect width="1" height="1" x="17" y="20" fill="#000000" />
  <rect width="1" height="1" x="19" y="20" fill="#000000" />
  <rect width="1" height="1" x="20" y="20" fill="#000000" />
  <rect width="1" height="1" x="21" y="20" fill="#000000" />
  <rect width="1" height="1" x="22" y="20" fill="#000000" />
  <rect width="1" height="1" x="25" y="20" fill="#000000" />
  <rect width="1" height="1" x="27" y="20" fill="#000000" />
  <rect width="1" height="1" x="29" y="20" fill="#000000" />
  <rect width="1" height="1" x="32" y="20" fill="#000000" />
  <rect width="1" height="1" x="37" y="20" fill="#000000" />
  <rect width="1" height="1" x="5" y="21" fill="#000000" />
  <rect width="1" height="1" x="7" y="21" fill="#000000" />
  <rect width="1" height="1" x="8" y="21" fill="#000000" />
  <rect width="1" height="1" x="13" y="21" fill="#000000" />
  <rect width="1" height="1" x="15" y="21" fill="#000000" />
  <rect width="1" height="1" x="16" y="21" fill="#000000" />
  <rect width="1" height="1" x="18" y="21" fill="#000000" />
  <rect width="1" height="1" x="19" y="21" fill="#000000" />
  <rect width="1" height="1" x="20" y="21" fill="#000000" />
  <rect width="1" height="1" x="24" y="21" fill="#000000" />
  <rect width="1" height="1" x="26" y="21" fill="#000000" />
  <rect width="1" height="1" x="30" y="21" fill="#000000" />
  <rect width="1" height="1" x="31" y="21" fill="#000000" />
  <rect width="1" height="1" x="32" y="21" fill="#000000" />
  <rect width="1" height="1" x="33" y="21" fill="#000000" />
  <rect width="1" height="1" x="34" y="21" fill="#000000" />
  <rect width="1" height="1" x="35" y="21" fill="#000000" />
  <rect width="1" height="1" x="36" y="21" fill="#000000" />
  <rect width="1" height="1" x="37" y="21" fill="#000000" />
  <rect width="1" height="1" x="1" y="22" fill="#000000" />
  <rect width="1" height="1" x="3" y="22" fill="#000000" />
  <rect width="1" height="1" x="4" y="22" fill="#000000" />
  <rect width="1" height="1" x="8" y="22" fill="#000000" />
  <rect width="1" height="1" x="9" y="22" fill="#000000" />
  <rect width="1" height="1" x="10" y="22" fill="#000000" />
  <rect width="1" height="1" x="17" y="22" fill="#000000" />
  <rect width="1" height="1" x="19" y="22" fill="#000000" />
  <rect width="1" height="1" x="20" y="22" fill="#000000" />
  <rect width="1" height="1" x="21" y="22" fill="#000000" />
  <rect width="1" height="1" x="22" y="22" fill="#000000" />
  <rect width="1" height="1" x="24" y="22" fill="#000000" />
  <rect width="1" height="1" x="25" y="22" fill="#000000" />
  <rect width="1" height="1" x="27" y="22" fill="#000000" />
  <rect width="1" height="1" x="29" y="22" fill="#000000" />
  <rect width="1" height="1" x="32" y="22" fill="#000000" />
  <rect width="1" height="1" x="34" y="22" fill="#000000" />
  <rect width="1" height="1" x="36" y="22" fill="#000000" />
  <rect width="1" height="1" x="1" y="23" fill="#000000" />
  <rect width="1" height="1" x="4" y="23" fill="#000000" />
  <rect width="1" height="1" x="5" y="23" fill="#000000" />
  <rect width="1" height="1" x="6" y="23" fill="#000000" />
  <rect width="1" height="1" x="7" y="23" fill="#000000" />
  <rect width="1" height="1" x="8" y="23" fill="#000000" />
  <rect width="1" height="1" x="9" y="23" fill="#000000" />
  <rect width="1" height="1" x="10" y="23" fill="#000000" />
  <rect width="1" height="1" x="11" y="23" fill="#000000" />
  <rect width="1" height="1" x="12" y="23" fill="#000000" />
  <rect width="1" height="1" x="13" y="23" fill="#000000" />
  <rect width="1" height="1" x="16" y="23" fill="#000000" />
  <rect width="1" height="1" x="17" y="23" fill="#000000" />
  <rect width="1" height="1" x="18" y="23" fill="#000000" />
  <rect width="1" height="1" x="23" y="23" fill="#000000" />
  <rect width="1" height="1" x="27" y="23" fill="#000000" />
  <rect width="1" height="1" x="28" y="23" fill="#000000" />
  <rect width="1" height="1" x="29" y="23" fill="#000000" />
  <rect width="1" height="1" x="31" y="23" fill="#000000" />
  <rect width="1" height="1" x="32" y="23" fill="#000000" />
  <rect width="1" height="1" x="36" y="23" fill="#000000" />
  <rect width="1" height="1" x="37" y="23" fill="#000000" />
  <rect width="1" height="1" x="1" y="24" fill="#000000" />
  <rect width="1" height="1" x="2" y="24" fill="#000000" />
  <rect width="1" height="1" x="4" y="24" fill="#000000" />
  <rect width="1" height="1" x="5" y="24" fill="#000000" />
  <rect width="1" height="1" x="8" y="24" fill="#000000" />
  <rect width="1" height="1" x="10" y="24" fill="#000000" />
  <rect width="1" height="1" x="12" y="24" fill="#000000" />
  <rect width="1" height="1" x="15" y="24" fill="#000000" />
  <rect width="1" height="1" x="19" y="24" fill="#000000" />
  <rect width="1" height="1" x="22" y="24" fill="#000000" />
  <rect width="1" height="1" x="27" y="24" fill="#000000" />
  <rect width="1" height="1" x="28" y="24" fill="#000000" />
  <rect width="1" height="1" x="29" y="24" fill="#000000" />
  <rect width="1" height="1" x="30" y="24" fill="#000000" />
  <rect width="1" height="1" x="37" y="24" fill="#000000" />
  <rect width="1" height="1" x="3" y="25" fill="#000000" />
  <rect width="1" height="1" x="6" y="25" fill="#000000" />
  <rect width="1" height="1" x="7" y="25" fill="#000000" />
  <rect width="1" height="1" x="8" y="25" fill="#000000" />
  <rect width="1" height="1" x="10" y="25" fill="#000000" />
  <rect width="1" height="1" x="11" y="25" fill="#000000" />
  <rect width="1" height="1" x="12" y="25" fill="#000000" />
  <rect width="1" height="1" x="16" y="25" fill="#000000" />
  <rect width="1" height="1" x="17" y="25" fill="#000000" />
  <rect width="1" height="1" x="18" y="25" fill="#000000" />
  <rect width="1" height="1" x="20" y="25" fill="#000000" />
  <rect width="1" height="1" x="23" y="25" fill="#000000" />
  <rect width="1" height="1" x="26" y="25" fill="#000000" />
  <rect width="1" height="1" x="28" y="25" fill="#000000" />
  <rect width="1" height="1" x="30" y="25" fill="#000000" />
  <rect width="1" height="1" x="31" y="25" fill="#000000" />
  <rect width="1" height="1" x="33" y="25" fill="#000000" />
  <rect width="1" height="1" x="35" y="25" fill="#000000" />
  <rect width="1" height="1" x="36" y="25" fill="#000000" />
  <rect width="1" height="1" x="37" y="25" fill="#000000" />
  <rect width="1" height="1" x="1" y="26" fill="#000000" />
  <rect width="1" height="1" x="3" y="26" fill="#000000" />
  <rect width="1" height="1" x="5" y="26" fill="#000000" />
  <rect width="1" height="1" x="6" y="26" fill="#000000" />
  <rect width="1" height="1" x="9" y="26" fill="#000000" />
  <rect width="1" height="1" x="13" y="26" fill="#000000" />
  <rect width="1" height="1" x="14" y="26" fill="#000000" />
  <rect width="1" height="1" x="15" y="26" fill="#000000" />
  <rect width="1" height="1" x="17" y="26" fill="#000000" />
  <rect width="1" height="1" x="19" y="26" fill="#000000" />
  <rect width="1" height="1" x="20" y="26" fill="#000000" />
  <rect width="1" height="1" x="21" y="26" fill="#000000" />
  <rect width="1" height="1" x="22" y="26" fill="#000000" />
  <rect width="1" height="1" x="23" y="26" fill="#000000" />
  <rect width="1" height="1" x="24" y="26" fill="#000000" />
  <rect width="1" height="1" x="25" y="26" fill="#000000" />
  <rect width="1" height="1" x="27" y="26" fill="#000000" />
  <rect width="1" height="1" x="29" y="26" fill="#000000" />
  <rect width="1" height="1" x="32" y="26" fill="#000000" />
  <rect width="1" height="1" x="34" y="26" fill="#000000" />
  <rect width="1" height="1" x="36" y="26" fill="#000000" />
  <rect width="1" height="1" x="1" y="27" fill="#000000" />
  <rect width="1" height="1" x="3" y="27" fill="#000000" />
  <rect width="1" height="1" x="6" y="27" fill="#000000" />
  <rect width="1" height="1" x="7" y="27" fill="#000000" />
  <rect width="1" height="1" x="11" y="27" fill="#000000" />
  <rect width="1" height="1" x="14" y="27" fill="#000000" />
  <rect width="1" height="1" x="15" y="27" fill="#000000" />
  <rect width="1" height="1" x="16" y="27" fill="#000000" />
  <rect width="1" height="1" x="19" y="27" fill="#000000" />
  <rect width="1" height="1" x="22" y="27" fill="#000000" />
  <rect width="1" height="1" x="23" y="27" fill="#000000" />
  <rect width="1" height="1" x="27" y="27" fill="#000000" />
  <rect width="1" height="1" x="28" y="27" fill="#000000" />
  <rect width="1" height="1" x="29" y="27" fill="#000000" />
  <rect width="1" height="1" x="30" y="27" fill="#000000" />
  <rect width="1" height="1" x="34" y="27" fill="#000000" />
  <rect width="1" height="1" x="36" y="27" fill="#000000" />
  <rect width="1" height="1" x="37" y="27" fill="#000000" />
  <rect width="1" height="1" x="1" y="28" fill="#000000" />
  <rect width="1" height="1" x="3" y="28" fill="#000000" />
  <rect width="1" height="1" x="5" y="28" fill="#000000" />
  <rect width="1" height="1" x="9" y="28" fill="#000000" />
  <rect width="1" height="1" x="10" y="28" fill="#000000" />
  <rect width="1" height="1" x="13" y="28" fill="#000000" />
  <rect width="1" height="1" x="14" y="28" fill="#000000" />
  <rect width="1" height="1" x="22" y="28" fill="#000000" />
  <rect width="1" height="1" x="27" y="28" fill="#000000" />
  <rect width="1" height="1" x="30" y="28" fill="#000000" />
  <rect width="1" height="1" x="33" y="28" fill="#000000" />
  <rect width="1" height="1" x="37" y="28" fill="#000000" />
  <rect width="1" height="1" x="1" y="29" fill="#000000" />
  <rect width="1" height="1" x="5" y="29" fill="#000000" />
  <rect width="1" height="1" x="6" y="29" fill="#000000" />
  <rect width="1" height="1" x="7" y="29" fill="#000000" />
  <rect width="1" height="1" x="8" y="29" fill="#000000" />
  <rect width="1" height="1" x="9" y="29" fill="#000000" />
  <rect width="1" height="1" x="10" y="29" fill="#000000" />
  <rect width="1" height="1" x="11" y="29" fill="#000000" />
  <rect width="1" height="1" x="13" y="29" fill="#000000" />
  <rect width="1" height="1" x="15" y="29" fill="#000000" />
  <rect width="1" height="1" x="16" y="29" fill="#000000" />
  <rect width="1" height="1" x="18" y="29" fill="#000000" />
  <rect width="1" height="1" x="21" y="29" fill="#000000" />
  <rect width="1" height="1" x="23" y="29" fill="#000000" />
  <rect width="1" height="1" x="26" y="29" fill="#000000" />
  <rect width="1" height="1" x="28" y="29" fill="#000000" />
  <rect width="1" height="1" x="29" y="29" fill="#000000" />
  <rect width="1" height="1" x="30" y="29" fill="#000000" />
  <rect width="1" height="1" x="31" y="29" fill="#000000" />
  <rect width="1" height="1" x="32" y="29" fill="#000000" />
  <rect width="1" height="1" x="33" y="29" fill="#000000" />
  <rect width="1" height="1" x="34" y="29" fill="#000000" />
  <rect width="1" height="1" x="35" y="29" fill="#000000" />
  <rect width="1" height="1" x="9" y="30" fill="#000000" />
  <rect width="1" height="1" x="10" y="30" fill="#000000" />
  <rect width="1" height="1" x="17" y="30" fill="#000000" />
  <rect width="1" height="1" x="20" y="30" fill="#000000" />
  <rect width="1" height="1" x="21" y="30" fill="#000000" />
  <rect width="1" height="1" x="23" y="30" fill="#000000" />
  <rect width="1" height="1" x="24" y="30" fill="#000000" />
  <rect width="1" height="1" x="25" y="30" fill="#000000" />
  <rect width="1" height="1" x="27" y="30" fill="#000000" />
  <rect width="1" height="1" x="29" y="30" fill="#000000" />
  <rect width="1" height="1" x="33" y="30" fill="#000000" />
  <rect width="1" height="1" x="34" y="30" fill="#000000" />
  <rect width="1" height="1" x="35" y="30" fill="#000000" />
  <rect width="1" height="1" x="1" y="31" fill="#000000" />
  <rect width="1" height="1" x="2" y="31" fill="#000000" />
  <rect width="1" height="1" x="3" y="31" fill="#000000" />
  <rect width="1" height="1" x="4" y="31" fill="#000000" />
  <rect width="1" height="1" x="5" y="31" fill="#000000" />
  <rect width="1" height="1" x="6" y="31" fill="#000000" />
  <rect width="1" height="1" x="7" y="31" fill="#000000" />
  <rect width="1" height="1" x="9" y="31" fill="#000000" />
  <rect width="1" height="1" x="10" y="31" fill="#000000" />
  <rect width="1" height="1" x="12" y="31" fill="#000000" />
  <rect width="1" height="1" x="13" y="31" fill="#000000" />
  <rect width="1" height="1" x="16" y="31" fill="#000000" />
  <rect width="1" height="1" x="17" y="31" fill="#000000" />
  <rect width="1" height="1" x="19" y="31" fill="#000000" />
  <rect width="1" height="1" x="21" y="31" fill="#000000" />
  <rect width="1" height="1" x="22" y="31" fill="#000000" />
  <rect width="1" height="1" x="25" y="31" fill="#000000" />
  <rect width="1" height="1" x="27" y="31" fill="#000000" />
  <rect width="1" height="1" x="29" y="31" fill="#000000" />
  <rect width="1" height="1" x="31" y="31" fill="#000000" />
  <rect width="1" height="1" x="33" y="31" fill="#000000" />
  <rect width="1" height="1" x="36" y="31" fill="#000000" />
  <rect width="1" height="1" x="37" y="31" fill="#000000" />
  <rect width="1" height="1" x="1" y="32" fill="#000000" />
  <rect width="1" height="1" x="7" y="32" fill="#000000" />
  <rect width="1" height="1" x="11" y="32" fill="#000000" />
  <rect width="1" height="1" x="12" y="32" fill="#000000" />
  <rect width="1" height="1" x="15" y="32" fill="#000000" />
  <rect width="1" height="1" x="16" y="32" fill="#000000" />
  <rect width="1" height="1" x="19" y="32" fill="#000000" />
  <rect width="1" height="1" x="21" y="32" fill="#000000" />
  <rect width="1" height="1" x="22" y="32" fill="#000000" />
  <rect width="1" height="1" x="23" y="32" fill="#000000" />
  <rect width="1" height="1" x="25" y="32" fill="#000000" />
  <rect width="1" height="1" x="27" y="32" fill="#000000" />
  <rect width="1" height="1" x="29" y="32" fill="#000000" />
  <rect width="1" height="1" x="33" y="32" fill="#000000" />
  <rect width="1" height="1" x="34" y="32" fill="#000000" />
  <rect width="1" height="1" x="1" y="33" fill="#000000" />
  <rect width="1" height="1" x="3" y="33" fill="#000000" />
  <rect width="1" height="1" x="4" y="33" fill="#000000" />
  <rect width="1" height="1" x="5" y="33" fill="#000000" />
  <rect width="1" height="1" x="7" y="33" fill="#000000" />
  <rect width="1" height="1" x="9" y="33" fill="#000000" />
  <rect width="1" height="1" x="12" y="33" fill="#000000" />
  <rect width="1" height="1" x="16" y="33" fill="#000000" />
  <rect width="1" height="1" x="18" y="33" fill="#000000" />
  <rect width="1" height="1" x="20" y="33" fill="#000000" />
  <rect width="1" height="1" x="21" y="33" fill="#000000" />
  <rect width="1" height="1" x="23" y="33" fill="#000000" />
  <rect width="1" height="1" x="24" y="33" fill="#000000" />
  <rect width="1" height="1" x="26" y="33" fill="#000000" />
  <rect width="1" height="1" x="28" y="33" fill="#000000" />
  <rect width="1" height="1" x="29" y="33" fill="#000000" />
  <rect width="1" height="1" x="30" y="33" fill="#000000" />
  <rect width="1" height="1" x="31" y="33" fill="#000000" />
  <rect width="1" height="1" x="32" y="33" fill="#000000" />
  <rect width="1" height="1" x="33" y="33" fill="#000000" />
  <rect width="1" height="1" x="34" y="33" fill="#000000" />
  <rect width="1" height="1" x="35" y="33" fill="#000000" />
  <rect width="1" height="1" x="36" y="33" fill="#000000" />
  <rect width="1" height="1" x="37" y="33" fill="#000000" />
  <rect width="1" height="1" x="1" y="34" fill="#000000" />
  <rect width="1" height="1" x="3" y="34" fill="#000000" />
  <rect width="1" height="1" x="4" y="34" fill="#000000" />
  <rect width="1" height="1" x="5" y="34" fill="#000000" />
  <rect width="1" height="1" x="7" y="34" fill="#000000" />
  <rect width="1" height="1" x="9" y="34" fill="#000000" />
  <rect width="1" height="1" x="10" y="34" fill="#000000" />
  <rect width="1" height="1" x="13" y="34" fill="#000000" />
  <rect width="1" height="1" x="14" y="34" fill="#000000" />
  <rect width="1" height="1" x="15" y="34" fill="#000000" />
  <rect width="1" height="1" x="17" y="34" fill="#000000" />
  <rect width="1" height="1" x="20" y="34" fill="#000000" />
  <rect width="1" height="1" x="22" y="34" fill="#000000" />
  <rect width="1" height="1" x="23" y="34" fill="#000000" />
  <rect width="1" height="1" x="24" y="34" fill="#000000" />
  <rect width="1" height="1" x="25" y="34" fill="#000000" />
  <rect width="1" height="1" x="27" y="34" fill="#000000" />
  <rect width="1" height="1" x="29" y="34" fill="#000000" />
  <rect width="1" height="1" x="30" y="34" fill="#000000" />
  <rect width="1" height="1" x="31" y="34" fill="#000000" />
  <rect width="1" height="1" x="33" y="34" fill="#000000" />
  <rect width="1" height="1" x="35" y="34" fill="#000000" />
  <rect width="1" height="1" x="36" y="34" fill="#000000" />
  <rect width="1" height="1" x="37" y="34" fill="#000000" />
  <rect width="1" height="1" x="1" y="35" fill="#000000" />
  <rect width="1" height="1" x="3" y="35" fill="#000000" />
  <rect width="1" height="1" x="4" y="35" fill="#000000" />
  <rect width="1" height="1" x="5" y="35" fill="#000000" />
  <rect width="1" height="1" x="7" y="35" fill="#000000" />
  <rect width="1" height="1" x="9" y="35" fill="#000000" />
  <rect width="1" height="1" x="11" y="35" fill="#000000" />
  <rect width="1" height="1" x="14" y="35" fill="#000000" />
  <rect width="1" height="1" x="15" y="35" fill="#000000" />
  <rect width="1" height="1" x="16" y="35" fill="#000000" />
  <rect width="1" height="1" x="17" y="35" fill="#000000" />
  <rect width="1" height="1" x="19" y="35" fill="#000000" />
  <rect width="1" height="1" x="21" y="35" fill="#000000" />
  <rect width="1" height="1" x="22" y="35" fill="#000000" />
  <rect width="1" height="1" x="29" y="35" fill="#000000" />
  <rect width="1" height="1" x="32" y="35" fill="#000000" />
  <rect width="1" height="1" x="34" y="35" fill="#000000" />
  <rect width="1" height="1" x="35" y="35" fill="#000000" />
  <rect width="1" height="1" x="36" y="35" fill="#000000" />
  <rect width="1" height="1" x="37" y="35" fill="#000000" />
  <rect width="1" height="1" x="1" y="36" fill="#000000" />
  <rect width="1" height="1" x="7" y="36" fill="#000000" />
  <rect width="1" height="1" x="9" y="36" fill="#000000" />
  <rect width="1" height="1" x="11" y="36" fill="#000000" />
  <rect width="1" height="1" x="13" y="36" fill="#000000" />
  <rect width="1" height="1" x="14" y="36" fill="#000000" />
  <rect width="1" height="1" x="17" y="36" fill="#000000" />
  <rect width="1" height="1" x="19" y="36" fill="#000000" />
  <rect width="1" height="1" x="21" y="36" fill="#000000" />
  <rect width="1" height="1" x="22" y="36" fill="#000000" />
  <rect width="1" height="1" x="25" y="36" fill="#000000" />
  <rect width="1" height="1" x="27" y="36" fill="#000000" />
  <rect width="1" height="1" x="28" y="36" fill="#000000" />
  <rect width="1" height="1" x="29" y="36" fill="#000000" />
  <rect width="1" height="1" x="30" y="36" fill="#000000" />
  <rect width="1" height="1" x="32" y="36" fill="#000000" />
  <rect width="1" height="1" x="33" y="36" fill="#000000" />
  <rect width="1" height="1" x="37" y="36" fill="#000000" />
  <rect width="1" height="1" x="1" y="37" fill="#000000" />
  <rect width="1" height="1" x="2" y="37" fill="#000000" />
  <rect width="1" height="1" x="3" y="37" fill="#000000" />
  <rect width="1" height="1" x="4" y="37" fill="#000000" />
  <rect width="1" height="1" x="5" y="37" fill="#000000" />
  <rect width="1" height="1" x="6" y="37" fill="#000000" />
  <rect width="1" height="1" x="7" y="37" fill="#000000" />
  <rect width="1" height="1" x="9" y="37" fill="#000000" />
  <rect width="1" height="1" x="10" y="37" fill="#000000" />
  <rect width="1" height="1" x="11" y="37" fill="#000000" />
  <rect width="1" height="1" x="13" y="37" fill="#000000" />
  <rect width="1" height="1" x="15" y="37" fill="#000000" />
  <rect width="1" height="1" x="17" y="37" fill="#000000" />
  <rect width="1" height="1" x="23" y="37" fill="#000000" />
  <rect width="1" height="1" x="24" y="37" fill="#000000" />
  <rect width="1" height="1" x="26" y="37" fill="#000000" />
  <rect width="1" height="1" x="28" y="37" fill="#000000" />
  <rect width="1" height="1" x="30" y="37" fill="#000000" />
  <rect width="1" height="1" x="31" y="37" fill="#000000" />
  <rect width="1" height="1" x="32" y="37" fill="#000000" />
  <rect width="1" height="1" x="35" y="37" fill="#000000" />
  <rect width="1" height="1" x="36" y="37" fill="#000000" />
  <rect width="1" height="1" x="37" y="37" fill="#000000" />
</svg>